<?xml version="1.0" encoding="UTF-8" standalone="no"?>
<svg
   xmlns:dc="http://purl.org/dc/elements/1.1/"
   xmlns:cc="http://creativecommons.org/ns#"
   xmlns:rdf="http://www.w3.org/1999/02/22-rdf-syntax-ns#"
   xmlns:svg="http://www.w3.org/2000/svg"
   xmlns="http://www.w3.org/2000/svg"
   xmlns:sodipodi="http://sodipodi.sourceforge.net/DTD/sodipodi-0.dtd"
   xmlns:inkscape="http://www.inkscape.org/namespaces/inkscape"
   version="1.1"
   x="0px"
   y="0px"
   viewBox="0 0 90 112.5"
   enable-background="new 0 0 90 90"
   xml:space="preserve"
   id="svg2"
   inkscape:version="0.91 r13725"
   sodipodi:docname="Q40953_noun_458092_ccCristianoZoucas_prayer.svg"><metadata
     id="metadata14"><rdf:RDF><cc:Work
         rdf:about=""><dc:format>image/svg+xml</dc:format><dc:type
           rdf:resource="http://purl.org/dc/dcmitype/StillImage" /><dc:title></dc:title></cc:Work></rdf:RDF></metadata><defs
     id="defs12" /><sodipodi:namedview
     pagecolor="#ffffff"
     bordercolor="#666666"
     borderopacity="1"
     objecttolerance="10"
     gridtolerance="10"
     guidetolerance="10"
     inkscape:pageopacity="0"
     inkscape:pageshadow="2"
     inkscape:window-width="1680"
     inkscape:window-height="988"
     id="namedview10"
     showgrid="false"
     inkscape:zoom="5.9334116"
     inkscape:cx="32.022311"
     inkscape:cy="57.81354"
     inkscape:window-x="-8"
     inkscape:window-y="-8"
     inkscape:window-maximized="1"
     inkscape:current-layer="svg2" /><path
     d="m 64.99348,10.662363 c 1.829236,1.191427 2.955606,2.848454 3.380387,4.974909 L 72.2645,35.154221 c 0.297219,1.403179 0.191343,2.784673 -0.318904,4.145757 -0.466876,1.317713 -1.233522,2.423674 -2.296112,3.316606 -1.148056,0.935028 -2.445359,1.530741 -3.890633,1.785865 l -15.753878,2.487454 c -0.76537,0.08419 -1.529465,0.08419 -2.296112,0 l -4.528442,20.665005 21.366595,27.298217 c 1.191427,1.020494 1.997617,2.316522 2.423673,3.890634 0.382686,1.572841 0.297219,3.146951 -0.255123,4.719781 -0.595714,1.48865 -1.552427,2.70049 -2.87014,3.63679 -1.359808,0.93503 -2.848454,1.40318 -4.464661,1.40318 l -29.849452,0 c -2.16855,0 -4.018196,-0.76537 -5.548937,-2.29611 -1.530741,-1.53074 -2.296112,-3.38039 -2.296112,-5.55021 0,-2.125184 0.765371,-3.954419 2.296112,-5.485161 1.530741,-1.48737 3.380387,-2.23233 5.548937,-2.23233 l 9.056885,0 -9.694694,-8.036391 C 21.155605,79.716646 17.986971,73.932996 19.390151,67.554908 20.835425,61.218916 22.111043,56.413664 23.217003,53.140429 L 29.595091,32.284081 55.362567,30.179312 53.002674,18.634973 c -0.382685,-2.083084 0.02169,-4.018195 1.211837,-5.80406 1.190151,-1.82796 2.848454,-2.9339206 4.973633,-3.3166058 2.085635,-0.4681517 4.019471,-0.085466 5.805336,1.1480558 z M 45.348969,25.268185 c -2.50914,2.551235 -5.548937,3.826852 -9.120666,3.826852 -3.571729,0 -6.633212,-1.275617 -9.184447,-3.826852 -2.50914,-2.551236 -3.763072,-5.612718 -3.763072,-9.184447 0,-3.529634 1.253932,-6.5911163 3.763072,-9.1844469 C 29.595091,4.4322466 32.656574,3.2 36.228303,3.2 c 3.571729,0 6.612802,1.2322466 9.120666,3.6992911 2.551235,2.5933306 3.826853,5.6548129 3.826853,9.1844469 0,3.571729 -1.275618,6.633211 -3.826853,9.184447 z"
     id="path4"
     inkscape:connector-curvature="0"
     style="clip-rule:evenodd;fill-rule:evenodd" /></svg>